# xmcd
#
# Track frame offsets:
# 150
# 14821
# 30062
# 43168
# 57451
# 75562
# 91479
# 104177
# 117322
# 130420
# 149568
# 167176
# 184096
# 200695
#
# Disc length: 2839 seconds
#
#
# Revision: 0
# Processed by: cddbd v1.5.2PL0 Copyright (c) Steve Scherf et al.
# Submitted via: FreeRIP 2.951 
#
DISCID=d10b150e
DTITLE=Sam Smith - In The Lonely Hour
DYEAR=1900
DGENRE=
TTITLE0=Money On My Mind
TTITLE1=Good Thing
TTITLE2=Stay With Me
TTITLE3=Leave Your Lover
TTITLE4=I'm Not The Only One
TTITLE5=Like I Can
TTITLE6=Life Support
TTITLE7=Not In That Way
TTITLE8=Lay One Down
TTITLE9=Nivarna
TTITLE10=Safe With Me
TTITLE11=The Lonely Hour
TTITLE12=Skier Of Rain
TTITLE13=Together
EXTD=
EXTT0=Money On My Mind
EXTT1=Good Thing
EXTT2=Stay With Me
EXTT3=Leave Your Lover
EXTT4=I'm Not The Only One
EXTT5=Like I Can
EXTT6=Life Support
EXTT7=
EXTT8=Lay One Down
EXTT9=Nivarna
EXTT10=Safe With Me
EXTT11=The Lonely Hour
EXTT12=Skier Of Rain
EXTT13=Together
PLAYORDER=
